<svg xmlns="http://www.w3.org/2000/svg"
aria-label="Reddit" role="img"
viewBox="0 0 512 512"><rect
width="512" height="512"
rx="15%"
fill="#f40"/><g fill="#fff"><path
d="M135.744 226.347a166 117 0 01241.09.43a42 42 0 1144.366 68.75a166 117 0 11-330.3496-.354a42 42 0 1144.8936-68.826M160 287a31 31 0 1062 0a31 31 0 10-62 0m130 0a31 31 0 1062 0a31 31 0 10-62 0"/><circle
cx="375" cy="114" r="32"/></g><g stroke-linecap="round" stroke-linejoin="round" fill="none"><path
d="m256 196 23-101 73 15" stroke="#fff" stroke-width="16"/><path
d="m191 359c33 25 97 26 130 0" stroke="#f40" stroke-width="13"/></g></svg>