<!-- <svg xmlns="http://www.w3.org/2000/svg"
aria-label="..." role="img"
viewBox="0 0 512 512"><rect
width="512" height="512"
rx="15%"
fill="#fff"/>
...
</svg> -->

<svg xmlns="http://www.w3.org/2000/svg"
aria-label="Sogo" role="img"
width="792px" height="464px" >
    <path fill="#50bd37"
    d="m157.6 182.7-20.8-5c-19-4.4-28.6-9.3-28.6-23c0-15.6 15.9-21.8 30.2-21.8c14.5 0 25.2 7.3 31.4 18.6c0 0 0 .1.1.2c.1.2.3.5.4.7c2 3 5.3 5 8.8 5c6.1 0 10.5-4.4 10.5-10.5c0-2.3-.5-4.8-1.6-6.6c-10.7-18.1-28.3-26-48.4-26c-27.4 0-53.8 13.7-53.8 43.8c0 27.7 27.4 35.8 37.3 38.3l19.9 4.7c15.2 3.7 27.7 8.7 27.7 23.3c0 16.8-17.4 24.3-34.2 24.3c-17.1 0-29.8-8.7-38.5-21.7c-1.9-2.8-4.9-4.8-8.6-4.8c-5.9 0-10.7 4.9-10.5 10.8c.1 2.4.9 4.5 2.1 6.2c13.7 20.5 33.4 28.1 55.5 28.1c28.3 0 56.6-13.1 56.6-44.8c0-20.5-15.2-35.1-35.5-39.8zm139.1 65.8c-33.6 0-54.7-25.2-54.7-57.8c0-32.7 21.2-57.8 54.7-57.8c33.9 0 55 25.2 55 57.8c0 32.6-21.1 57.8-55 57.8zm0-134.3c-45.1 0-77.1 32.6-77.1 76.5c0 43.8 32 76.5 77.1 76.5c45.4 0 77.4-32.6 77.4-76.5c0-43.9-32-76.5-77.4-76.5zm218.4 118.5c-.8.7-1.5 1.5-2.4 2.2c-1.1 1-2.4 2.1-3.8 3.2c-8.8 6.3-19.8 10-32.7 10c-33.6 0-54.7-25.2-54.7-57.8c0-32.7 21.1-57.8 54.7-57.8c33.9 0 55 25.2 55 57.8c0 17-5.8 32-16.1 42.5zm-50.2 82.9c2.5 0 5.1-.2 7.8-.5c5-.6 9.5-.9 13.6-.9c19.1.1 28.8 5.7 34.6 12.1c5.8 6.4 8.1 15.2 8.1 22.6c0 3.6-.5 6.7-1.2 8.6c-2.9 8.9-8.8 14.9-17.8 19.4c-9 4.4-20.9 6.7-33.4 6.7c-4.5 0-9-.3-13.5-.8c-8.5-1-19.7-4.6-27.9-11c-4.1-3.2-7.5-6.9-9.9-11.4c-2.4-4.5-3.8-9.7-3.8-16.3l0-.7c.3-12.2 5.9-20.4 12-26.3c3-2.9 6.2-5 8.5-6.4c.4-.2.7-.4 1-.6c6 3.6 13.5 5.5 21.9 5.5zm11.3-201.9c-45.1 0-77.1 32.6-77.1 76.5c0 29.6 14.6 54.1 38.1 66.9c-.3.3-.6.6-.9 1c-6.1 6.6-9.1 15.1-9.2 23.7c0 3.8.6 7.7 2 11.4c-3 1.9-6.7 4.6-10.4 8.1c-8.9 8.3-18.6 22.3-18.9 41.7c0 .4 0 .8 0 1.1c0 10 2.4 19 6.4 26.5c6.1 11.4 15.6 19.3 25.3 24.6c9.8 5.3 20.1 8.1 29 9.2c5.3.6 10.7 1 16.1 1c15 0 30-2.6 43-8.9c13-6.3 24.1-17.1 28.9-32.3c1.4-4.5 2.2-9.6 2.2-15.3c0-11.5-3.3-25.5-13.7-37.1c-10.3-11.6-27.4-19.4-50.9-19.3c-5.1 0-10.5.4-16.3 1.1c-1.9.2-3.6.3-5.1.3c-7.2 0-10.8-2-12.9-4.1c-2.1-2.1-3.2-4.8-3.2-8c0-3.3 1.3-6.7 3.4-9c2.2-2.3 5-3.9 9.8-3.9c.4 0 .9 0 1.4 0c3.1.2 6.1.3 9 .3c24 0 42-7.4 54.3-17.6c12.3-10.2 18.8-22.7 21.9-32.5c3.3-8.8 5.2-18.6 5.2-28.9c0-43.9-32-76.5-77.4-76.5zm167.5 31.2c-9.9 0-16.9-7.2-16.9-16.9c0-9.7 7-16.9 16.9-16.9c9.9 0 16.9 7.2 16.9 16.9c0 9.7-7 16.9-16.9 16.9zm0-50.4c-19.5 0-33.4 14.3-33.4 33.5c0 19.2 13.9 33.4 33.4 33.4c19.7 0 33.5-14.3 33.5-33.4c0-19.2-13.9-33.5-33.5-33.5zm0 84.2c-29.6 0-50.7-21.7-50.7-50.8c0-29.1 21.1-50.8 50.7-50.8c29.8 0 50.9 21.7 50.9 50.8c0 29.1-21 50.8-50.9 50.8zm0-120.3c-40.6 0-69.4 29.7-69.4 69.5c0 39.8 28.8 69.5 69.4 69.5c40.8 0 69.7-29.7 69.7-69.5c0-39.9-28.8-69.5-69.7-69.5z"/>
</svg>