<svg xmlns="http://www.w3.org/2000/svg"
aria-label="Subscribe Star" role="img"
viewBox="0 0 512 512"><rect
width="512" height="512"
rx="15%"
fill="#fff"/>
<style type="text/css">
	.st1{fill:#fff;}
	.st2{fill:#ff4081;}
</style>
<g>
	<circle fill="#009688" cx="256" cy="256" r="217.5"/>
	<path class="st1" d="M280.1668 263.8912c-2.9592-2.466-7.398-5.4252-18.7416-6.6582l-.2466 0-.2466 0c-1.7262.2466-3.4524.2466-4.932.2466c-1.7262 0-3.4524 0-5.1786-.2466c-.2466 0-.4932 0-.7398 0h0c0 0 0 0 0 0l0 0c-8.8776-.9864-15.2892-3.9456-19.2348-9.1242c-2.9592-3.699-5.1786-8.3844-6.6582-13.563c-1.4796-5.4252-2.9592-11.5902-3.4524-18.7416c0-.9864 0-1.9728 0-2.9592v-29.8386v-12.0834h-73.98v39.2094c0 15.5358.9864 28.6056 3.2058 40.1958c.2466 1.7262.7398 3.699.9864 5.4252c.4932 2.466.9864 4.6854 1.4796 7.1514c.7398 2.7126 1.4796 5.4252 2.2194 8.1378l3.699 9.1242 0 .2466c3.9456 7.8912 7.8912 13.8096 12.0834 19.2348c8.3844 10.6038 18.9882 18.9882 31.5648 24.66c8.631 3.9456 18.2484 6.9048 28.6056 8.631c8.1378 1.4796 17.0154 2.2194 26.3862 2.2194c12.5766 0 22.6872-1.233 35.0172-3.9456v-29.592c.2466-20.4678-5.4252-32.3046-11.8368-37.7298z"/>
	<path class="st2" d="m340.5838 215.0644c-7.398-9.3708-16.7688-17.0154-27.8658-22.9338c-.7398-.2466-1.233-.7398-1.9728-.9864c-8.631-4.1922-18.0018-7.398-28.6056-9.3708c-8.631-1.7262-18.0018-2.466-27.8658-2.466c-12.0834 0-23.6736 1.233-33.5376 3.699v29.8386c0 .9864 0 1.9728 0 2.9592c.4932 6.9048 1.9728 13.3164 3.4524 18.7416c1.4796 5.1786 3.699 9.864 6.6582 13.563c3.9456 5.1786 10.3572 8.1378 19.2348 9.1242l.4932 0c1.7262-.2466 3.4524-.2466 4.932-.2466c0 0 0 0 0 0c0 0 0 0 0 0c0 0 0 0 0 0c1.7262 0 3.4524 0 5.1786.2466c.2466 0 .4932 0 .4932 0h0c11.3436 1.233 15.7824 3.9456 18.7416 6.6582c6.4116 5.4252 12.0834 17.262 12.0834 37.7298v29.592v9.864h76.446v-36.99c0-14.796-1.233-29.0988-5.1786-42.9084c0-.2466 0-.2466-.2466-.4932c-2.466-8.3844-5.1786-16.5222-8.8776-24.4134c-2.9592-6.6582-7.398-13.563-13.563-21.2076z"/>
	<path class="st1" d="M223.6954 122.0962c11.8368 9.1242 22.9338 18.7416 33.291 28.6056c9.6174 9.1242 17.7552 18.7416 23.9202 29.3454c.2466.4932.7398 1.233.9864 1.7262c10.3572 1.9728 19.9746 4.932 28.6056 9.3708c.7398.2466 1.233.7398 1.9728.9864c11.097 5.9184 20.4678 13.563 27.8658 22.9338c6.165 7.6446 10.3572 14.5494 13.8096 21.7008c3.699 7.8912 6.4116 16.029 8.8776 24.4134c.2466.4932.2466.9864.4932 1.4796c4.932-15.2892 7.6446-33.291 7.6446-52.0326c0-22.6872-4.1922-42.6618-12.5766-59.6772c-7.8912-16.029-17.7552-30.5784-29.592-43.155c-11.3436-12.0834-23.6736-23.427-36.99-33.7842c-12.0834-9.3708-23.427-18.7416-33.5376-28.6056c-3.4524-3.4524-6.9048-6.9048-10.1106-10.3572c-30.5784.9864-59.4306 8.1378-85.8168 20.2212c6.9048 12.33 15.0426 23.427 24.4134 33.291c11.8368 12.33 23.9202 23.427 36.7434 33.5376z"/>
	<path class="st2" d="M289.044 392.3698c-12.0834-9.3708-23.427-18.7416-33.5376-28.6056c-9.6174-8.8776-17.5086-18.7416-23.9202-29.3454c-.2466-.4932-.4932-.9864-.7398-1.233c-10.3572-1.7262-19.9746-4.6854-28.6056-8.631c-12.33-5.9184-22.9338-14.0562-31.5648-24.66c-4.1922-5.4252-8.1378-11.5902-12.0834-19.2348l0-.2466-3.699-9.1242c-.9864-2.466-1.7262-5.1786-2.2194-8.1378c-.4932-2.2194-.9864-4.6854-1.4796-7.1514c-.4932-1.7262-.7398-3.4524-1.233-5.4252c-5.1786 15.7824-8.1378 33.7842-8.1378 53.7588c0 22.6872 4.1922 42.6618 12.5766 59.6772c7.8912 16.029 17.7552 30.5784 29.592 43.155c11.3436 12.0834 23.6736 23.427 36.4968 33.5376c11.8368 9.3708 23.1804 18.9882 33.291 28.6056c2.7126 2.7126 5.4252 5.1786 7.8912 7.8912c31.0716-.7398 60.6636-7.8912 87.2964-20.4678c-6.6582-11.097-14.3028-21.4542-22.9338-30.825c-11.3436-12.0834-23.6736-23.427-36.99-33.5376z"/>
	<path fill="#dbb3cd" d="M292.2502 301.8676c0-20.7144-5.6718-32.5512-12.0834-37.7298c-2.9592-2.466-7.398-5.4252-18.7416-6.6582l-.2466 0-.2466 0c-1.4796 0-2.9592.2466-4.6854.2466c9.864 1.233 14.0562 3.9456 17.0154 6.4116c6.4116 5.4252 12.0834 17.262 12.0834 37.7298v29.592v1.4796c2.2194-.4932 4.6854-.7398 6.9048-1.4796v-29.592z"/>
	<path fill="#d64081" d="M146.5096 280.1668c4.1922 7.8912 8.1378 13.8096 12.5766 19.2348c8.8776 10.6038 19.728 18.9882 32.5512 24.66c8.8776 3.9456 18.7416 6.9048 29.592 8.631c3.2058.4932 6.6582.9864 10.1106 1.233c-.2466-.4932-.4932-.7398-.7398-1.233c-10.3572-1.7262-19.9746-4.6854-28.6056-8.631c-12.33-5.9184-22.9338-14.0562-31.5648-24.66c-4.1922-5.4252-8.1378-11.5902-12.0834-19.2348l0-.2466-3.699-9.1242c-1.4796-4.6854-2.7126-9.864-3.9456-15.0426c-.4932-1.7262-.7398-3.4524-1.233-5.4252c-2.466 7.1514-4.1922 15.0426-5.6718 22.9338l2.2194 6.6582.4932.2466z"/>
</g>
</svg>